# xmcd
#
# Track frame offsets:
#	150
#	15925
#	30270
#	45100
#	59766
#	74204
#	88733
#	104461
#	118759
#	133933
#	148083
#	162305
#	177318
#	192973
#	206874
#	221307
#	236370
#	251407
#	266127
#	280772
#
# Disc length: 3935 seconds
#
# Revision: 0
# Processed by: cddbd v1.5.2PL0 Copyright (c) Steve Scherf et al.
# Submitted via: EasyCDDAExtractor 16.0.6.1
#
DISCID=2b0f5d14
DTITLE=Συλλογικός δίσκος - Τα ρεμπέτικα Γ 1937-1960 19 Α
DYEAR=2010
DGENRE=Ρεμπέτικη
TTITLE0=Μπέλλου Σωτηρία - Το παράπονο του ξενητεμένου [ζεϊμπ., Β. Τσιτσάνης, Α
TTITLE0=θ 1950 ή 51]
TTITLE1=Χιώτης Μανώλης-Χασκίλ Σ.-Μπίνης Τ. - Παρτίδες [χασ., Μ. Χιώτης, Αθήνα 
TTITLE1=1951]
TTITLE2=Μπέλλου Σωτηρία-Καλλέργης Νίκος - Θέλω κρασί πολύ να πιώ [ζεϊμπ., Γ. Π
TTITLE2=απαϊωάννου, Αθ 6.1950]
TTITLE3=Μοσχονάς Οδυσσέας-Νίνου Μ.-Τσιτσάνης-Βούλγαρης-Γιαννόπουλος - Γειά σου
TTITLE3=καΐκι μου Αη Νικόλα [συρτό, Β. Τσιτσάνης, Αθ 1950]
TTITLE4=Τσαουσάκης Πρόδρομος - Βαρειά χτυπούν τα σήμαντρα [ζεϊμπ., Β. Τσιτσάνη
TTITLE4=ς, Αθ 1950]
TTITLE5=Τζουανάκος Σταύρος - Κρίμα τέτοια λεβεντιά [ζεϊμπ.Σ.Τζουανάκος-Κ.Κοφιν
TTITLE5=ιώτης,Αθ 1.1950]
TTITLE6=Μπέλλου Σωτηρία - Με πήρε το ξημέρωμα στους δρόμους [ζεϊμπ. Β.Τσιτσάνη
TTITLE6=ς,Αθ 4.1951]
TTITLE7=Νίνου Μαρίκα-Τατασσόπουλος Γ.-Μητσάκης Γ. - Βαλεντίνα [Γ. Μητσάκης, Αθ
TTITLE7=ήνα 1950]
TTITLE8=Τζουανάκος Σταύρος - Ένας διαβάτης [ζεϊμπ., Σ.Τζουανάκος-Κ.Κοφινιώτης,
TTITLE8=Αθ 1.1949]
TTITLE9=Τζουανάκος Σταύρος-Τσιτσάνης Βασίλης - Τρελλή που θέλεις να με στεφανώ
TTITLE9=σεις [χασ., Β. Τσιτσάνης, Αθ 1949]
TTITLE10=Χασκίλ Στέλλα-Μπίνης Τ.-Περπινιάδης Σ. - Η φυλακισμένη [ζεϊμπ., Μ. Μπ
TTITLE10=ακάλης, Αθήνα 1950]
TTITLE11=Στάμου Ρένα-Τσιτσάνης Βασίλης - Τσιγγάνε σπάσε το βιολί [χασ., Β. Τσι
TTITLE11=τσάνης, Αθ 1.1950]
TTITLE12=Μητσάκης Γιώργος-Γεωργακοπούλου Ιωάννα - Όσο βαριά είν' τα σίδερα [ζε
TTITLE12=ϊμπ., Γ. Μητσάκης, Αθ 1.1951]
TTITLE13=Νίνου Μαρίκα-Τσιτσάνης Βασίλης - Κάθε βράδυ λυπημένη [χασ., Β. Τσιτσά
TTITLE13=νης, Αθ 1950]
TTITLE14=Μπέλλου Σωτηρία - Φοβάμαι μη σε χάσω [απτ., Γ.Παπαϊωάννου-Α.Αγγελόπου
TTITLE14=λος,Αθ1951]
TTITLE15=Ντούο Χάρμα - Ώϊντε μπρε [χασαπσρβ, Λίτσα Χάρμα, Αθήνα 1951]
TTITLE16=Νίνου Μαρίκα-Τσιτσάνης Βασίλης - Κι αν πάθεις και καμμιά ζημιά (Τσιτσ
TTITLE16=άνη μου)[ζ.Β.Τσιτσάνης,Αθ1950ή51]
TTITLE17=Καλφοπούλου Σούλα-Βαμβακάρης Μ.-Περπινιάδης Σ. - Το καντήλι τρεμοσβύν
TTITLE17=ει [ζεϊμπ., Γ.Μπιθικώτσης-Χ.Βασιλειάδης,Αθ1949]
TTITLE18=Τσαουσάκης Πρόδρομος-Ντάλια Ρένα - Μη μού ξαναφύγεις πια [ζεϊμπ., Β. 
TTITLE18=Τσιτσάνης, Αθήνα 1950ή51]
TTITLE19=Χασκίλ Στέλλα - Γκιούλ Μπαχάρ [ανατ., Β. Τσιτσάνης, Αθήνα 1951]
EXTD=
EXTT0=
EXTT1=
EXTT2=
EXTT3=
EXTT4=
EXTT5=
EXTT6=
EXTT7=
EXTT8=
EXTT9=
EXTT10=
EXTT11=
EXTT12=
EXTT13=
EXTT14=
EXTT15=
EXTT16=
EXTT17=
EXTT18=
EXTT19=
PLAYORDER=
